<?xml version="1.0" encoding="iso-8859-1"?>
<!-- Generator: Adobe Illustrator 19.0.0, SVG Export Plug-In . SVG Version: 6.00 Build 0)  -->
<svg version="1.1" id="Capa_1" xmlns="http://www.w3.org/2000/svg" xmlns:xlink="http://www.w3.org/1999/xlink" x="0px" y="0px"
	 viewBox="0 0 512.002 512.002" style="enable-background:new 0 0 512.002 512.002;" xml:space="preserve">
<path style="fill:#0076A5;" d="M208.138,291.387L208.138,291.387l97.972-69.834c0.892-0.629,1.724-1.298,2.504-2.007l-8.172-42.592
	c-7.614-2.849-16.455-2.028-23.603,3.001l-49.121,35.617"/>
<path style="fill:#0387D8;" d="M227.926,256.482l-0.163-52.117c-0.051-15.708-8.118-29.533-20.316-37.59l-53.725-15.865
	c-31.602,46.11-45.157,102.541-37.553,158.394c1.338,9.855,4.278,19.344,8.638,28.124c4.36,8.79,10.139,16.871,17.165,23.907
	l8.557,8.557L90.447,429.68l33.913,34.684l0.142-0.152l20.784,21.078l3.863-3.853c11.528-11.538,11.528-30.233,0-41.761
	l52.832-52.629c9.469-9.49,9.469-24.839,0-34.309l-11.548-11.548c-5.738-5.749-1.673-15.563,6.448-15.563
	c1.947,0,4.289,0.558,6.479,1.47c2.2,0.912,4.248,2.16,5.627,3.548l39.246,39.246l-60.081,59.787l33.913,34.684l0.142-0.152
	l20.784,21.078l3.853-3.853c11.497-11.507,11.528-30.122,0.091-41.659l52.751-52.73c9.469-9.49,9.469-24.839,0-34.309l-45.39-45.39"
	/>
<g>
	<path style="fill:#0076A5;" d="M142.283,464.213l-0.142,0.151l-33.913-34.684l51.503-51.25c4.734-4.711,4.744-12.371,0.021-17.094
		l0,0c-7.026-7.035-12.805-15.116-17.165-23.907c-4.36-8.779-7.3-18.27-8.638-28.123c-7.365-54.095,5.119-108.732,34.623-154.009
		l-14.851-4.385c-31.602,46.11-45.157,102.542-37.553,158.394c1.338,9.855,4.278,19.344,8.638,28.123
		c4.36,8.791,10.139,16.872,17.165,23.907l8.557,8.557L90.447,429.68l33.913,34.684l0.142-0.151l20.784,21.078l3.863-3.854
		c1.759-1.76,3.245-3.688,4.468-5.73L142.283,464.213z"/>
	<path style="fill:#0076A5;" d="M239.988,464.213l-0.142,0.151l-33.913-34.684l51.503-51.25c4.735-4.711,4.744-12.371,0.021-17.094
		l-30.689-30.689c-1.379-1.389-3.427-2.637-5.627-3.548c-2.19-0.912-4.532-1.47-6.479-1.47c-3.166,0-5.703,1.5-7.296,3.662
		c0.602,0.432,1.152,0.885,1.62,1.357l39.246,39.246l-60.081,59.787l33.913,34.684l0.142-0.151l20.784,21.078l3.853-3.854
		c1.761-1.761,3.249-3.692,4.472-5.736L239.988,464.213z"/>
</g>
<g>
	<path style="fill:#455256;" d="M164.367,424.519l-15.218,15.157c11.528,11.527,11.528,30.224,0,41.761l-3.863,3.853l-20.784-21.078
		l-0.142,0.152L90.447,429.68l39.642-39.439L164.367,424.519z"/>
	<path style="fill:#455256;" d="M246.935,439.778c11.436,11.538,11.406,30.151-0.091,41.659l-3.853,3.853l-20.784-21.078
		l-0.142,0.152l-33.913-34.684l39.875-39.673l34.349,34.339L246.935,439.778z"/>
</g>
<path style="fill:#E5C691;" d="M220.393,202.057c2.491,0,4.952-0.143,7.371-0.438c-0.922-14.563-8.738-27.259-20.219-34.843
	l-47.142-13.919v3.442h0.01C167.604,182.667,191.735,202.057,220.393,202.057z"/>
<polygon style="fill:#A56247;" points="316.413,504.394 296.644,390.655 336.182,363.282 293.602,141.259 342.264,127.573 
	330.099,7.606 429.158,7.606 429.158,504.394 "/>
<circle style="fill:#F9DCA2;" cx="196.303" cy="105.593" r="62.169"/>
<path style="fill:#E5C691;" d="M170.627,105.596c0-27.986,18.493-51.648,43.924-59.446c-5.772-1.769-11.898-2.727-18.249-2.727
	c-34.337,0-62.174,27.836-62.174,62.174s27.836,62.173,62.174,62.173c6.352,0,12.478-0.957,18.249-2.726
	C189.119,157.243,170.627,133.581,170.627,105.596z"/>
<path style="fill:#E52E40;" d="M249.524,73.439c0,0-35.708,8.901-78.898,31.693c-10.818,5.708-22.102,12.288-33.417,19.821
	c-2.007-6.093-3.082-12.602-3.082-19.354c0-34.339,27.84-62.18,62.169-62.18c6.326,0,12.44,0.943,18.189,2.707
	c0.02,0.01,0.03,0.01,0.051,0.01C229.277,50.657,241.687,60.501,249.524,73.439z"/>
<path style="fill:#CC1D36;" d="M214.546,46.146c-25.286,7.755-43.717,31.196-43.92,58.986
	c-10.818,5.708-22.102,12.288-33.417,19.821c-2.007-6.093-3.082-12.602-3.082-19.354c0-34.339,27.84-62.18,62.169-62.18
	c6.326,0,12.44,0.943,18.189,2.707c0.02,0.01,0.03,0.01,0.051,0.01L214.546,46.146z"/>
<path style="fill:#0387D8;" d="M173.746,209.076l18.162,47.418l66.224-0.023c14.258-0.004,26.274,11.661,26.008,25.916
	c-0.258,13.819-11.54,24.945-25.421,24.949l-84.295,0.027c-1.681,0-3.336-0.164-4.943-0.482
	c-8.467-1.673-15.647-7.583-18.815-15.854l-24.422-63.758c-5.024-13.117,1.536-27.823,14.653-32.847l0,0
	C154.017,189.398,168.723,195.958,173.746,209.076z"/>
<path style="fill:#F9DCA2;" d="M308.614,219.546c-0.781,0.71-1.612,1.379-2.504,2.007l-29.27-41.598
	c7.148-5.029,15.988-5.85,23.603-3.001L308.614,219.546z"/>
<path style="fill:#0076A5;" d="M271.394,294.662l-84.296,0.027c-1.681,0-3.336-0.164-4.943-0.483
	c-8.467-1.673-15.647-7.583-18.815-15.854l-24.422-63.759c-2.531-6.606-2.119-13.615,0.585-19.588
	c-12.178,5.504-18.1,19.619-13.258,32.261l24.422,63.759c3.168,8.271,10.347,14.18,18.815,15.854
	c1.607,0.317,3.262,0.483,4.943,0.483l84.296-0.027c10.302-0.003,19.166-6.133,23.161-14.94
	C278.683,293.847,275.134,294.661,271.394,294.662z"/>
<path style="fill:#F9DCA2;" d="M284.142,282.386c-0.253,13.819-11.538,24.951-25.417,24.951h-1.936v-50.866h1.348
	C272.391,256.472,284.405,268.132,284.142,282.386z"/>
<polygon style="fill:#8E4E38;" points="362.244,7.606 381.507,244.75 358.189,254.889 394.687,504.394 429.158,504.394 
	429.158,7.606 "/>
<path d="M211.033,126.81c4.2,0,7.604-3.404,7.604-7.604v-8.778c0-4.2-3.404-7.604-7.604-7.604s-7.604,3.404-7.604,7.604v8.778
	C203.429,123.405,206.833,126.81,211.033,126.81z"/>
<path d="M238.517,121.723c4.2,0,7.604-3.404,7.604-7.604v-8.779c0-4.2-3.404-7.604-7.604-7.604s-7.604,3.404-7.604,7.604v8.779
	C230.913,118.32,234.317,121.723,238.517,121.723z"/>
<path d="M349.83,126.805L337.664,6.839c-0.423-4.178-4.151-7.227-8.333-6.798c-4.178,0.424-7.222,4.155-6.798,8.333l11.521,113.609
	l-42.512,11.956c-3.803,1.07-6.153,4.873-5.41,8.752l4.804,25.044c-5.254,0.085-10.448,1.415-15.136,3.944L313.681,9.334
	c0.954-4.089-1.587-8.178-5.678-9.133c-4.089-0.957-8.178,1.587-9.133,5.678l-41.767,178.993l-21.881,15.865
	c-0.81-11.381-5.269-22.042-12.562-30.551c25.985-10.645,44.181-36.518,43.39-66.467c-0.972-36.817-30.961-66.863-67.777-67.873
	c-16.52-0.453-32.259,4.787-44.997,14.801c-3.56,2.798-3.815,8.112-0.613,11.314l0,0c2.733,2.733,7.061,2.953,10.107,0.572
	c9.542-7.461,21.225-11.506,33.528-11.506c16.097,0,30.585,7.011,40.582,18.134c-17.813,5.534-55.197,18.88-94.675,43.524
	c-0.303-2.322-0.475-4.684-0.475-7.087c0-6.795,1.273-13.541,3.717-19.826c1.389-3.573-0.097-7.618-3.47-9.439l-0.001-0.001
	c-3.986-2.151-9.015-0.387-10.663,3.832c-3.148,8.064-4.789,16.72-4.789,25.435c0,17.686,6.627,33.844,17.51,46.155
	c-30.4,46.951-42.965,103.012-35.401,158.579c1.443,10.62,4.593,20.875,9.361,30.478c4.757,9.595,11.013,18.31,18.599,25.906
	l3.167,3.167l-54.677,54.409c-2.958,2.943-2.991,7.721-0.073,10.706l6.603,6.753l-5.733,5.732
	c-3.032,3.032-3.198,8.161-0.091,11.117c1.466,1.395,3.353,2.093,5.239,2.093c1.946,0,3.892-0.742,5.376-2.226l5.842-5.842
	l13.436,13.741l-5.46,5.46c-3.032,3.032-3.198,8.161-0.091,11.117c1.466,1.395,3.352,2.093,5.239,2.093
	c1.946,0,3.892-0.742,5.376-2.226l5.747-5.746l13.401,13.591c1.415,1.436,3.347,2.244,5.362,2.244h0.03
	c2.014,0,3.945-0.799,5.37-2.22l3.871-3.863c12.626-12.637,14.234-32.179,4.828-46.569l48.009-47.823
	c12.407-12.435,12.403-32.646-0.006-45.057l-11.544-11.543c-0.178-0.178-0.718-0.72-0.33-1.656c0.386-0.932,1.147-0.932,1.396-0.932
	c0.659,0,1.986,0.232,3.567,0.891c1.6,0.662,2.693,1.427,3.162,1.901l33.857,33.857l-54.678,54.409
	c-2.958,2.943-2.991,7.721-0.073,10.706l6.425,6.57l-5.916,5.917c-3.03,3.03-3.198,8.157-0.093,11.113
	c1.467,1.397,3.356,2.096,5.243,2.096c1.946,0,3.892-0.742,5.377-2.226l6.023-6.023l13.435,13.74l-5.643,5.643
	c-3.03,3.03-3.198,8.157-0.093,11.113c1.467,1.397,3.356,2.096,5.243,2.096c1.946,0,3.892-0.742,5.377-2.226l5.927-5.928
	l13.577,13.769c1.417,1.438,3.352,2.247,5.37,2.247h0.025c2.017,0,3.951-0.801,5.377-2.227l3.855-3.856
	c12.57-12.581,14.21-32.08,4.891-46.457l34.461-34.448l17.344,99.79c0.643,3.697,3.855,6.303,7.483,6.303
	c0.433,0,0.87-0.036,1.311-0.112c4.138-0.72,6.908-4.657,6.19-8.794l-18.938-108.952l35.544-24.607
	c2.475-1.713,3.706-4.727,3.14-7.683L302.385,146.69l41.938-11.795C347.88,133.892,350.202,130.481,349.83,126.805z
	 M124.485,243.929l15.206,39.699l-17.923,0.338C121.442,270.505,122.359,257.108,124.485,243.929z M169.985,125.642l-13.883-3.62
	c5.069-3.029,10.097-5.871,15.038-8.531L169.985,125.642z M171.794,141.83l9.829,16.313c-12.443-3.481-23.103-11.261-30.264-21.644
	L171.794,141.83z M154.613,163.456c9.828,27.419,36.045,46.151,65.563,46.2l0.123,39.223l-23.159,0.008l-16.291-42.532
	c-5.989-15.635-22.642-24.098-38.501-20.314C145.973,178.314,150.066,170.773,154.613,163.456z M133.347,224.549
	c-1.704-4.448-1.574-9.291,0.367-13.64c1.939-4.349,5.458-7.682,9.905-9.386c2.092-0.801,4.241-1.18,6.357-1.18
	c7.174,0,13.955,4.364,16.67,11.452l18.162,47.419c1.126,2.941,3.95,4.884,7.101,4.884c0.001,0,0.002,0,0.003,0l56.135-0.019
	c0.054,0.001,0.109,0.009,0.163,0.009c0.038,0,0.074-0.009,0.112-0.01h0.86v35.657l-74.763,0.024c-0.003,0-0.007,0-0.01,0
	c-1.158,0-2.319-0.114-3.453-0.338c-6.051-1.196-10.98-5.35-13.188-11.114L133.347,224.549z M264.39,265.2
	c2.628,0.949,5.058,2.464,7.047,4.489c3.376,3.439,5.188,7.898,5.101,12.556c-0.142,7.661-5.227,14.172-12.148,16.531V265.2z
	 M275.061,190.638l20.468,29.09l-37.062,26.237l12.16-52.111L275.061,190.638z M295.956,193.908l-7.535-10.709
	c1.797-0.311,3.638-0.346,5.463-0.098L295.956,193.908z M242.171,248.872l-6.665,0.002l-0.092-29.491l16.415-11.902L242.171,248.872
	z M218.769,194.42c-16.973-0.475-32.422-8.824-42.217-21.911c6.266,1.852,12.889,2.863,19.748,2.863
	c3.125,0,6.196-0.227,9.213-0.627C212.006,179.753,216.612,186.665,218.769,194.42z M250.87,105.596
	c0,28.679-22.243,52.243-50.38,54.391l-15.974-26.51l2.68-28.165c26.396-12.724,48.519-19.945,58.49-22.901
	C249.005,89.452,250.87,97.308,250.87,105.596z M143.772,445.054c8.022,8.021,8.512,20.77,1.48,29.371l-44.099-44.671l28.924-28.783
	l23.531,23.532l-9.826,9.788c-1.431,1.424-2.236,3.36-2.238,5.381C141.543,441.689,142.344,443.626,143.772,445.054z
	 M241.536,445.131c7.943,8.011,8.407,20.718,1.415,29.288l-44.091-44.666l29.156-29.012l23.604,23.604l-10.059,10.055
	C238.599,437.36,238.587,442.157,241.536,445.131z M314.356,369.144c-0.182-7.911-3.274-15.764-9.292-21.782l-5.699-5.699
	c-2.97-2.97-7.784-2.97-10.754,0l0,0c-2.97,2.97-2.97,7.784,0,10.754l5.699,5.699c6.487,6.487,6.485,17.056,0.002,23.553
	l-31.936,31.922l-23.58-23.58l14.66-14.588c0.754-0.751,1.4-1.62,1.802-2.607c1.207-2.959,0.464-6.188-1.648-8.301l-39.227-39.226
	c-2.584-2.603-5.838-4.273-8.097-5.209c-3.179-1.327-6.52-2.056-9.404-2.056c-6.783,0-12.846,4.048-15.443,10.313
	c-2.6,6.268-1.181,13.421,3.617,18.23l11.549,11.549c6.487,6.487,6.485,17.056,0.011,23.545l-32.231,32.107l-23.525-23.524
	l14.917-14.844c0.751-0.747,1.391-1.616,1.787-2.599c1.192-2.955,0.451-6.174-1.658-8.284l-8.555-8.554
	c-6.415-6.424-11.708-13.796-15.734-21.915c-4.033-8.12-6.695-16.789-7.915-25.767c-0.414-3.039-0.754-6.079-1.039-9.12
	l23.311-0.439c4.736,8.063,12.651,13.765,22.033,15.618c2.103,0.416,4.256,0.627,6.4,0.627c0.006,0,0.013,0,0.02,0l76.708-0.025
	l12.358,12.358c2.97,2.97,7.784,2.97,10.754,0l0,0c2.97-2.97,2.97-7.784,0-10.754l-3.797-3.797
	c12.203-4.701,21.037-16.471,21.294-30.221c0.163-8.773-3.195-17.117-9.455-23.494c-2.282-2.324-4.886-4.286-7.699-5.852
	l28.821-20.402l24.37,127.069L314.356,369.144z"/>
<g>
</g>
<g>
</g>
<g>
</g>
<g>
</g>
<g>
</g>
<g>
</g>
<g>
</g>
<g>
</g>
<g>
</g>
<g>
</g>
<g>
</g>
<g>
</g>
<g>
</g>
<g>
</g>
<g>
</g>
</svg>
